<?xml version="1.0" encoding="UTF-8" standalone="no"?>
<!DOCTYPE svg PUBLIC "-//W3C//DTD SVG 1.1//EN" "http://www.w3.org/Graphics/SVG/1.1/DTD/svg11.dtd">
<svg xmlns="http://www.w3.org/2000/svg" xmlns:xlink="http://www.w3.org/1999/xlink" width="50" zoomAndPan="magnify" viewBox="0 0 375 303.749993" height="50" preserveAspectRatio="xMidYMid meet" version="1.0"><defs><clipPath id="69bf9d8caa"><path d="M 73.839844 75 L 258 75 L 258 234 L 73.839844 234 Z M 73.839844 75 " clip-rule="nonzero"/></clipPath><clipPath id="e4c478815f"><path d="M 73.839844 30.351562 L 296 30.351562 L 296 273.148438 L 73.839844 273.148438 Z M 73.839844 30.351562 " clip-rule="nonzero"/></clipPath></defs><g clip-path="url(#69bf9d8caa)"><path fill="#ff6341" d="M 220.015625 211.800781 C 171.335938 211.8125 122.648438 211.808594 73.96875 211.808594 L 73.96875 233.640625 C 99.480469 233.640625 124.984375 233.632812 150.5 233.632812 C 173.378906 233.632812 196.261719 233.644531 219.140625 233.640625 C 224.640625 233.640625 229.957031 232.820312 235.117188 230.726562 C 251.980469 223.875 261.210938 204.332031 255.679688 186.941406 C 250.777344 171.53125 236.628906 161.4375 220.375 161.480469 C 190.253906 161.5625 160.128906 161.519531 130.007812 161.527344 C 126.167969 161.527344 122.421875 161.0625 118.761719 159.75 C 103.503906 154.285156 94.582031 138.007812 98.554688 122.25 C 102.148438 107.980469 114.964844 98.183594 129.628906 98.070312 C 157.21875 97.863281 184.8125 97.613281 212.402344 97.394531 C 222.4375 97.316406 232.480469 97.320312 242.519531 97.214844 C 249.359375 97.140625 254.414062 90.527344 252.75 83.949219 C 251.382812 78.53125 247.40625 75.386719 241.777344 75.425781 C 203.457031 75.695312 165.144531 75.957031 126.832031 76.296875 C 120.917969 76.347656 115.148438 77.632812 109.726562 79.960938 C 90.824219 88.074219 79.617188 102.265625 76.390625 122.703125 C 74.835938 132.539062 76.128906 142.074219 80.328125 150.898438 C 90.285156 171.835938 106.964844 183.097656 130.355469 183.265625 C 159.726562 183.484375 189.097656 183.3125 218.464844 183.347656 C 220.496094 183.347656 222.5625 183.515625 224.5625 183.886719 C 232.574219 185.351562 237.75 195.015625 234.546875 202.503906 C 231.824219 208.875 226.8125 211.796875 220.015625 211.800781 Z M 220.015625 211.800781 " fill-opacity="1" fill-rule="nonzero"/></g><g clip-path="url(#e4c478815f)"><path fill="#ff6341" d="M 275.390625 144.46875 C 272.582031 141.5 269.515625 138.785156 266.289062 135.703125 C 266.941406 135.265625 267.476562 134.882812 268.039062 134.546875 C 284.175781 124.800781 293.605469 110.5 295.644531 91.835938 C 297.378906 75.910156 292.527344 61.6875 281.890625 49.683594 C 270.847656 37.230469 256.78125 30.878906 240.199219 30.59375 C 224.90625 30.332031 209.601562 30.542969 194.304688 30.542969 C 154.191406 30.542969 114.085938 30.542969 73.972656 30.542969 L 73.972656 74.859375 C 90.082031 59.96875 109.789062 52.5 132.828125 52.378906 C 168.277344 52.191406 203.722656 52.3125 239.171875 52.347656 C 244.976562 52.351562 250.5 53.675781 255.714844 56.328125 C 272.617188 64.933594 279.28125 86.4375 269.835938 102.820312 C 263.253906 114.246094 253.175781 120.351562 239.9375 120.398438 C 202.238281 120.523438 164.53125 120.441406 126.832031 120.453125 C 120.292969 120.453125 115.441406 125.578125 115.800781 132.054688 C 116.121094 137.855469 120.929688 142.234375 127.058594 142.242188 C 158 142.257812 188.941406 142.257812 219.878906 142.25 C 227.152344 142.25 234.121094 143.859375 240.738281 146.722656 C 264.871094 157.175781 279.050781 183.300781 272.566406 209.507812 C 269.265625 222.867188 261.972656 233.488281 250.800781 241.394531 C 241.210938 248.183594 230.429688 251.335938 218.703125 251.335938 C 170.460938 251.335938 122.210938 251.335938 73.96875 251.320312 L 73.96875 273.144531 C 122.597656 273.128906 171.222656 273.144531 219.851562 273.09375 C 236.0625 273.078125 250.894531 268.316406 264.039062 258.789062 C 289.441406 240.367188 300.773438 209.707031 294.011719 179.445312 C 291.035156 166.132812 284.804688 154.398438 275.390625 144.46875 Z M 275.390625 144.46875 " fill-opacity="1" fill-rule="nonzero"/></g></svg>